<svg width="21" height="17" viewBox="0 0 21 17" fill="none" xmlns="http://www.w3.org/2000/svg">
<g clip-path="url(#clip0_75_181)">
<path d="M11.116 13.8451C11.0242 13.7711 10.9514 13.6831 10.9017 13.5863C10.852 13.4894 10.8265 13.3856 10.8265 13.2807C10.8265 13.1758 10.852 13.072 10.9017 12.9751C10.9514 12.8782 11.0242 12.7903 11.116 12.7162L15.3398 9.29697H3.28119C3.02011 9.29697 2.76974 9.21301 2.58513 9.06357C2.40052 8.91412 2.29681 8.71144 2.29681 8.50009C2.29681 8.28875 2.40052 8.08606 2.58513 7.93662C2.76974 7.78717 3.02011 7.70322 3.28119 7.70322L15.3398 7.70322L11.116 4.28263C10.9311 4.13293 10.8272 3.92989 10.8272 3.71818C10.8272 3.50647 10.9311 3.30343 11.116 3.15373C11.3009 3.00402 11.5517 2.91992 11.8133 2.91992C12.0748 2.91992 12.3256 3.00402 12.5105 3.15373L18.4168 7.93498C18.5085 8.00901 18.5814 8.09698 18.631 8.19384C18.6807 8.2907 18.7063 8.39455 18.7063 8.49943C18.7063 8.60431 18.6807 8.70816 18.631 8.80502C18.5814 8.90188 18.5085 8.98985 18.4168 9.06388L12.5105 13.8451C12.4191 13.9194 12.3104 13.9784 12.1908 14.0186C12.0711 14.0588 11.9428 14.0795 11.8133 14.0795C11.6837 14.0795 11.5554 14.0588 11.4358 14.0186C11.3161 13.9784 11.2074 13.9194 11.116 13.8451Z" fill="white"/>
</g>
<defs>
<clipPath id="clip0_75_181">
<rect width="17" height="21" fill="white" transform="matrix(0 1 -1 0 21 0)"/>
</clipPath>
</defs>
</svg>
